<svg width="36" height="43" viewBox="0 0 36 43" fill="none" xmlns="http://www.w3.org/2000/svg">
<path d="M26.1811 0.26416H26.4834C26.7259 3.25957 25.5816 5.49763 24.1906 7.11769C22.8261 8.72697 20.9568 10.2881 17.934 10.0517C17.7322 7.09944 18.879 5.02729 20.2675 3.41055C21.5556 1.9033 23.9173 0.562789 26.1803 0.26416H26.1811ZM35.3318 31.4393V31.5231C34.4822 34.093 33.2706 36.2954 31.7916 38.3393C30.4413 40.195 28.7879 42.6918 25.834 42.6918C23.282 42.6918 21.5863 41.0527 18.9704 41.0079C16.2033 40.9631 14.682 42.3783 12.1516 42.735H11.2888C9.43107 42.4662 7.93212 40.9971 6.83926 39.6724C3.61879 35.7595 1.12995 30.7052 0.666565 24.2374V22.337C0.86255 17.7082 3.11388 13.9447 6.1068 12.1205C7.68631 11.1508 9.85792 10.3246 12.2753 10.6938C13.3117 10.8539 14.3706 11.2089 15.2982 11.559C16.1776 11.8966 17.2771 12.4955 18.3193 12.4631C19.0252 12.4424 19.7269 12.0749 20.4386 11.8161C22.5222 11.0646 24.5651 10.2027 27.2574 10.6075C30.4928 11.0961 32.7898 12.532 34.2082 14.7477C31.4711 16.488 29.3069 19.1101 29.6765 23.5879C30.0053 27.655 32.3729 30.035 35.3301 31.4377L35.3318 31.4393Z" fill="black"/>
</svg>
