<svg width="42" height="42" viewBox="0 0 42 42" fill="none" xmlns="http://www.w3.org/2000/svg">
<rect x="0.5" y="0.5" width="41" height="41" rx="20.5" fill="#E4E4E4"/>
<rect x="0.5" y="0.5" width="41" height="41" rx="20.5" stroke="#797979"/>
<path d="M14.3189 23.5035L13.4835 26.6222L10.4301 26.6868C9.51759 24.9943 9 23.0578 9 21C9 19.0101 9.48394 17.1336 10.3418 15.4813H10.3424L13.0608 15.9797L14.2516 18.6818C14.0024 19.4084 13.8665 20.1884 13.8665 21C13.8666 21.8809 14.0262 22.7249 14.3189 23.5035Z" fill="#FBBB00"/>
<path d="M32.7903 18.7583C32.9281 19.4842 33 20.2339 33 21.0001C33 21.8592 32.9097 22.6972 32.7376 23.5056C32.1534 26.2563 30.627 28.6583 28.5125 30.3581L28.5119 30.3574L25.088 30.1827L24.6034 27.1576C26.0064 26.3348 27.1029 25.0471 27.6805 23.5056H21.2638V18.7583H32.7903Z" fill="#2B2B2B"/>
<path d="M28.5118 30.3574L28.5125 30.358C26.456 32.011 23.8437 33 20.9999 33C16.4301 33 12.4569 30.4457 10.4301 26.6868L14.3189 23.5035C15.3322 26.2081 17.9413 28.1334 20.9999 28.1334C22.3146 28.1334 23.5463 27.778 24.6032 27.1576L28.5118 30.3574Z" fill="#696969"/>
<path d="M28.6596 11.7626L24.7721 14.9453C23.6783 14.2615 22.3853 13.8666 21 13.8666C17.8721 13.8666 15.2143 15.8802 14.2517 18.6818L10.3425 15.4813H10.3418C12.339 11.6308 16.3622 9 21 9C23.9117 9 26.5814 10.0372 28.6596 11.7626Z" fill="#F14336"/>
</svg>
