<svg width="370" height="40" viewBox="0 0 370 40" fill="none" xmlns="http://www.w3.org/2000/svg">
<path d="M0.5 16C0.5 12.2146 0.501062 9.4259 0.788435 7.28845C1.07387 5.16538 1.63351 3.75989 2.6967 2.6967C3.75989 1.63351 5.16538 1.07387 7.28845 0.788435C9.4259 0.501062 12.2146 0.5 16 0.5H354C357.785 0.5 360.574 0.501062 362.712 0.788435C364.835 1.07387 366.24 1.63351 367.303 2.6967C368.366 3.75989 368.926 5.16538 369.212 7.28845C369.499 9.4259 369.5 12.2146 369.5 16V24C369.5 27.7854 369.499 30.5741 369.212 32.7116C368.926 34.8346 368.366 36.2401 367.303 37.3033C366.24 38.3665 364.835 38.9261 362.712 39.2116C360.574 39.4989 357.785 39.5 354 39.5H16C12.2146 39.5 9.4259 39.4989 7.28845 39.2116C5.16538 38.9261 3.75989 38.3665 2.6967 37.3033C1.63351 36.2401 1.07387 34.8346 0.788435 32.7116C0.501062 30.5741 0.5 27.7854 0.5 24V16Z" fill="white"/>
<path d="M0.5 16C0.5 12.2146 0.501062 9.4259 0.788435 7.28845C1.07387 5.16538 1.63351 3.75989 2.6967 2.6967C3.75989 1.63351 5.16538 1.07387 7.28845 0.788435C9.4259 0.501062 12.2146 0.5 16 0.5H354C357.785 0.5 360.574 0.501062 362.712 0.788435C364.835 1.07387 366.24 1.63351 367.303 2.6967C368.366 3.75989 368.926 5.16538 369.212 7.28845C369.499 9.4259 369.5 12.2146 369.5 16V24C369.5 27.7854 369.499 30.5741 369.212 32.7116C368.926 34.8346 368.366 36.2401 367.303 37.3033C366.24 38.3665 364.835 38.9261 362.712 39.2116C360.574 39.4989 357.785 39.5 354 39.5H16C12.2146 39.5 9.4259 39.4989 7.28845 39.2116C5.16538 38.9261 3.75989 38.3665 2.6967 37.3033C1.63351 36.2401 1.07387 34.8346 0.788435 32.7116C0.501062 30.5741 0.5 27.7854 0.5 24V16Z" stroke="#EE1D23"/>
<path fill-rule="evenodd" clip-rule="evenodd" d="M150.5 28C150.5 27.7348 150.395 27.4804 150.207 27.2929C150.02 27.1054 149.765 27 149.5 27H144.5V13H149.5C149.765 13 150.02 12.8946 150.207 12.7071C150.395 12.5196 150.5 12.2652 150.5 12C150.5 11.7348 150.395 11.4804 150.207 11.2929C150.02 11.1054 149.765 11 149.5 11H144.5C143.97 11 143.461 11.2107 143.086 11.5858C142.711 11.9609 142.5 12.4696 142.5 13V27C142.5 27.5304 142.711 28.0391 143.086 28.4142C143.461 28.7893 143.97 29 144.5 29H149.5C149.765 29 150.02 28.8946 150.207 28.7071C150.395 28.5196 150.5 28.2652 150.5 28Z" fill="#EE1D23"/>
<path d="M161.214 20.6996C161.397 20.5134 161.499 20.2633 161.5 20.0026V19.9966C161.499 19.7324 161.394 19.4794 161.207 19.2926L157.207 15.2926C157.115 15.1971 157.004 15.1209 156.882 15.0685C156.76 15.0161 156.629 14.9885 156.496 14.9873C156.364 14.9862 156.232 15.0115 156.109 15.0618C155.986 15.1121 155.874 15.1863 155.781 15.2802C155.687 15.3741 155.612 15.4857 155.562 15.6086C155.512 15.7315 155.487 15.8632 155.488 15.996C155.489 16.1288 155.516 16.26 155.569 16.382C155.621 16.504 155.697 16.6143 155.793 16.7066L158.086 18.9996H148.5C148.235 18.9996 147.98 19.1049 147.793 19.2925C147.605 19.48 147.5 19.7344 147.5 19.9996C147.5 20.2648 147.605 20.5192 147.793 20.7067C147.98 20.8942 148.235 20.9996 148.5 20.9996H158.086L155.793 23.2926C155.611 23.4812 155.51 23.7338 155.512 23.996C155.515 24.2582 155.62 24.509 155.805 24.6944C155.991 24.8798 156.241 24.985 156.504 24.9873C156.766 24.9895 157.018 24.8888 157.207 24.7066L161.207 20.7066L161.214 20.6996Z" fill="#EE1D23"/>
<path d="M174.672 26V14.5469H176.188V24.6484H181.828V26H174.672ZM182.938 21.8516C182.938 20.3151 183.365 19.1771 184.219 18.4375C184.932 17.8229 185.802 17.5156 186.828 17.5156C187.969 17.5156 188.901 17.8906 189.625 18.6406C190.349 19.3854 190.711 20.4167 190.711 21.7344C190.711 22.8021 190.549 23.6432 190.227 24.2578C189.909 24.8672 189.443 25.3411 188.828 25.6797C188.219 26.0182 187.552 26.1875 186.828 26.1875C185.667 26.1875 184.727 25.8151 184.008 25.0703C183.294 24.3255 182.938 23.2526 182.938 21.8516ZM184.383 21.8516C184.383 22.9141 184.615 23.7109 185.078 24.2422C185.542 24.7682 186.125 25.0312 186.828 25.0312C187.526 25.0312 188.107 24.7656 188.57 24.2344C189.034 23.7031 189.266 22.8932 189.266 21.8047C189.266 20.7786 189.031 20.0026 188.562 19.4766C188.099 18.9453 187.521 18.6797 186.828 18.6797C186.125 18.6797 185.542 18.9427 185.078 19.4688C184.615 19.9948 184.383 20.7891 184.383 21.8516ZM192.109 26.6875L193.477 26.8906C193.534 27.3125 193.693 27.6198 193.953 27.8125C194.302 28.0729 194.779 28.2031 195.383 28.2031C196.034 28.2031 196.536 28.0729 196.891 27.8125C197.245 27.5521 197.484 27.1875 197.609 26.7188C197.682 26.4323 197.716 25.8307 197.711 24.9141C197.096 25.638 196.331 26 195.414 26C194.273 26 193.391 25.5885 192.766 24.7656C192.141 23.9427 191.828 22.9557 191.828 21.8047C191.828 21.013 191.971 20.2839 192.258 19.6172C192.544 18.9453 192.958 18.4271 193.5 18.0625C194.047 17.6979 194.688 17.5156 195.422 17.5156C196.401 17.5156 197.208 17.9115 197.844 18.7031V17.7031H199.141V24.875C199.141 26.1667 199.008 27.0807 198.742 27.6172C198.482 28.1589 198.065 28.5859 197.492 28.8984C196.924 29.2109 196.224 29.3672 195.391 29.3672C194.401 29.3672 193.602 29.1432 192.992 28.6953C192.383 28.2526 192.089 27.5833 192.109 26.6875ZM193.273 21.7031C193.273 22.7917 193.49 23.5859 193.922 24.0859C194.354 24.5859 194.896 24.8359 195.547 24.8359C196.193 24.8359 196.734 24.5885 197.172 24.0938C197.609 23.5938 197.828 22.8125 197.828 21.75C197.828 20.7344 197.602 19.9688 197.148 19.4531C196.701 18.9375 196.159 18.6797 195.523 18.6797C194.898 18.6797 194.367 18.9349 193.93 19.4453C193.492 19.9505 193.273 20.7031 193.273 21.7031ZM205.445 20.4219C205.445 18.5208 205.956 17.0339 206.977 15.9609C207.997 14.8828 209.315 14.3438 210.93 14.3438C211.987 14.3438 212.94 14.5964 213.789 15.1016C214.638 15.6068 215.284 16.3125 215.727 17.2188C216.174 18.1198 216.398 19.1432 216.398 20.2891C216.398 21.4505 216.164 22.4896 215.695 23.4062C215.227 24.3229 214.562 25.0182 213.703 25.4922C212.844 25.9609 211.917 26.1953 210.922 26.1953C209.844 26.1953 208.88 25.9349 208.031 25.4141C207.182 24.8932 206.539 24.1823 206.102 23.2812C205.664 22.3802 205.445 21.4271 205.445 20.4219ZM207.008 20.4453C207.008 21.8255 207.378 22.9141 208.117 23.7109C208.862 24.5026 209.794 24.8984 210.914 24.8984C212.055 24.8984 212.992 24.4974 213.727 23.6953C214.466 22.8932 214.836 21.7552 214.836 20.2812C214.836 19.349 214.677 18.5365 214.359 17.8438C214.047 17.1458 213.586 16.6068 212.977 16.2266C212.372 15.8411 211.693 15.6484 210.938 15.6484C209.865 15.6484 208.94 16.0182 208.164 16.7578C207.393 17.4922 207.008 18.7214 207.008 20.4453ZM223.617 26V24.7812C222.971 25.7188 222.094 26.1875 220.984 26.1875C220.495 26.1875 220.036 26.0938 219.609 25.9062C219.188 25.7188 218.872 25.4844 218.664 25.2031C218.461 24.9167 218.318 24.5677 218.234 24.1562C218.177 23.8802 218.148 23.4427 218.148 22.8438V17.7031H219.555V22.3047C219.555 23.0391 219.583 23.5339 219.641 23.7891C219.729 24.1589 219.917 24.4505 220.203 24.6641C220.49 24.8724 220.844 24.9766 221.266 24.9766C221.688 24.9766 222.083 24.8698 222.453 24.6562C222.823 24.4375 223.083 24.1432 223.234 23.7734C223.391 23.3984 223.469 22.8568 223.469 22.1484V17.7031H224.875V26H223.617ZM230.156 24.7422L230.359 25.9844C229.964 26.0677 229.609 26.1094 229.297 26.1094C228.786 26.1094 228.391 26.0286 228.109 25.8672C227.828 25.7057 227.63 25.4948 227.516 25.2344C227.401 24.9688 227.344 24.4141 227.344 23.5703V18.7969H226.312V17.7031H227.344V15.6484L228.742 14.8047V17.7031H230.156V18.7969H228.742V23.6484C228.742 24.0495 228.766 24.3073 228.812 24.4219C228.865 24.5365 228.945 24.6276 229.055 24.6953C229.169 24.763 229.331 24.7969 229.539 24.7969C229.695 24.7969 229.901 24.7786 230.156 24.7422Z" fill="#EE1D23"/>
</svg>
