<svg width="197" height="32" viewBox="0 0 197 32" fill="none" xmlns="http://www.w3.org/2000/svg">
<path d="M18.86 20.69C18.25 21.23 17.56 21.66 16.78 21.98C15.88 22.34 14.93 22.52 13.95 22.52C12.72 22.52 11.6 22.24 10.65 21.69C9.67999 21.13 8.92999 20.34 8.39999 19.34C7.87999 18.34 7.60999 17.18 7.60999 15.89C7.60999 14.6 7.87999 13.44 8.39999 12.44C8.92999 11.44 9.67999 10.64 10.65 10.09C11.61 9.54 12.72 9.27001 13.95 9.27001C15.67 9.27001 17.18 9.83001 18.45 10.93L20.75 8.60001C18.82 6.79001 16.49 5.88 13.84 5.88C11.88 5.88 10.11 6.3 8.58999 7.13C7.06999 7.95 5.86999 9.13001 5.02999 10.64C4.17999 12.16 3.73999 13.93 3.73999 15.9C3.73999 17.87 4.16999 19.64 4.99999 21.14C5.82999 22.64 7.01999 23.83 8.54999 24.66C10.08 25.5 11.89 25.92 13.93 25.92C16.67 25.92 19.07 25.01 21.05 23.18L18.86 20.71V20.69Z" fill="black"/>
<path d="M28.64 22V6.32001H24.8V25.44H38.5V22H28.64Z" fill="black"/>
<path d="M45.78 22.29V17.24H55.72V14.26H45.78V9.45999H56.28V6.32999H42.08V25.45H56.59V22.29H45.78Z" fill="black"/>
<path d="M74.47 6.32001L71.95 12.84L68.77 21.54L65.65 12.83L63.12 6.32001H58.86L66.62 25.44H70.96L78.72 6.32001H74.47Z" fill="black"/>
<path d="M85.57 22.29V17.24H95.51V14.26H85.57V9.45999H96.07V6.32999H81.86V25.45H96.37V22.29H85.57Z" fill="black"/>
<path d="M111.87 18.67L112.4 18.5C113.73 18.07 114.78 17.34 115.5 16.34C116.22 15.34 116.59 14.1 116.59 12.68C116.59 11.42 116.31 10.3 115.77 9.33999C115.23 8.38999 114.45 7.62999 113.46 7.11999C112.45 6.58999 111.26 6.32999 109.91 6.32999H100.74V25.45H104.58V18.89H107.8L112.78 25.45H117.27L111.87 18.68V18.67ZM104.55 15.89V9.53999H109.38C110.44 9.53999 111.28 9.80999 111.88 10.37C112.49 10.94 112.8 11.73 112.8 12.72C112.8 13.71 112.5 14.51 111.9 15.06C111.3 15.61 110.46 15.88 109.38 15.88H104.55V15.89Z" fill="black"/>
<path d="M119.24 6.32001V9.62001H125.21V25.44H129.05V9.62001H135.04V6.32001H119.24Z" fill="black"/>
<path d="M147.52 6.32001H143.11L134.65 25.44H138.72L140.18 21.87H150.34L151.8 25.44H155.92L147.52 6.32001ZM141.52 18.62L145.3 9.39001L149.02 18.62H141.52Z" fill="black"/>
<path d="M162.87 22V6.32001H159.03V25.44H172.73V22H162.87Z" fill="black"/>
<path d="M183.83 15.69L191.77 6.32001H187.11L180.12 14.77V6.32001H176.31V25.44H180.12V16.92L187.55 25.44H192.5L183.83 15.69Z" fill="black"/>
</svg>
