<svg width="342" height="21" viewBox="0 0 342 21" fill="none" xmlns="http://www.w3.org/2000/svg">
<line x1="100.941" y1="11" x2="-1.53002e-05" y2="11" stroke="#7A808C" stroke-opacity="0.32"/>
<path d="M128.618 10.1191C128.618 8.45573 129.064 7.15462 129.958 6.21582C130.851 5.27246 132.004 4.80078 133.417 4.80078C134.342 4.80078 135.176 5.02181 135.918 5.46387C136.661 5.90592 137.226 6.52344 137.614 7.31641C138.006 8.10482 138.202 9.00033 138.202 10.0029C138.202 11.0192 137.997 11.9284 137.586 12.7305C137.176 13.5326 136.595 14.141 135.843 14.5557C135.091 14.9658 134.28 15.1709 133.41 15.1709C132.466 15.1709 131.623 14.943 130.88 14.4873C130.138 14.0316 129.575 13.4095 129.192 12.6211C128.809 11.8327 128.618 10.9987 128.618 10.1191ZM129.985 10.1396C129.985 11.3473 130.308 12.2998 130.956 12.9971C131.607 13.6898 132.423 14.0361 133.403 14.0361C134.401 14.0361 135.221 13.6852 135.864 12.9834C136.511 12.2816 136.834 11.2858 136.834 9.99609C136.834 9.18034 136.695 8.4694 136.417 7.86328C136.144 7.2526 135.741 6.78092 135.208 6.44824C134.679 6.111 134.084 5.94238 133.423 5.94238C132.485 5.94238 131.676 6.26595 130.997 6.91309C130.322 7.55566 129.985 8.63118 129.985 10.1396ZM139.747 15V7.74023H140.854V8.84082C141.137 8.32585 141.396 7.98633 141.633 7.82227C141.875 7.6582 142.139 7.57617 142.426 7.57617C142.841 7.57617 143.263 7.70833 143.691 7.97266L143.267 9.11426C142.966 8.93652 142.666 8.84766 142.365 8.84766C142.096 8.84766 141.854 8.92969 141.64 9.09375C141.426 9.25326 141.273 9.47656 141.182 9.76367C141.045 10.2012 140.977 10.6797 140.977 11.1992V15H139.747ZM148.421 15V4.97852H149.748V13.8174H154.683V15H148.421ZM155.654 11.3701C155.654 10.0257 156.028 9.02995 156.775 8.38281C157.399 7.84505 158.16 7.57617 159.058 7.57617C160.056 7.57617 160.872 7.9043 161.505 8.56055C162.139 9.21224 162.456 10.1146 162.456 11.2676C162.456 12.2018 162.314 12.9378 162.032 13.4756C161.754 14.0088 161.346 14.4235 160.808 14.7197C160.275 15.016 159.692 15.1641 159.058 15.1641C158.042 15.1641 157.219 14.8382 156.59 14.1865C155.966 13.5348 155.654 12.596 155.654 11.3701ZM156.918 11.3701C156.918 12.2998 157.121 12.9971 157.527 13.4619C157.932 13.9222 158.443 14.1523 159.058 14.1523C159.669 14.1523 160.177 13.9199 160.583 13.4551C160.988 12.9902 161.191 12.2816 161.191 11.3291C161.191 10.4313 160.986 9.75228 160.576 9.29199C160.17 8.82715 159.664 8.59473 159.058 8.59473C158.443 8.59473 157.932 8.82487 157.527 9.28516C157.121 9.74544 156.918 10.4404 156.918 11.3701ZM163.679 15.6016L164.875 15.7793C164.926 16.1484 165.065 16.4173 165.292 16.5859C165.598 16.8138 166.015 16.9277 166.543 16.9277C167.113 16.9277 167.553 16.8138 167.863 16.5859C168.173 16.3581 168.382 16.0391 168.492 15.6289C168.556 15.3783 168.585 14.8519 168.581 14.0498C168.043 14.6833 167.373 15 166.571 15C165.573 15 164.8 14.64 164.253 13.9199C163.707 13.1999 163.433 12.3363 163.433 11.3291C163.433 10.6364 163.558 9.99837 163.809 9.41504C164.06 8.82715 164.422 8.3737 164.896 8.05469C165.375 7.73568 165.935 7.57617 166.578 7.57617C167.434 7.57617 168.141 7.92253 168.697 8.61523V7.74023H169.832V14.0156C169.832 15.1458 169.715 15.9456 169.483 16.415C169.255 16.889 168.89 17.2627 168.389 17.5361C167.892 17.8096 167.279 17.9463 166.55 17.9463C165.684 17.9463 164.985 17.7503 164.452 17.3584C163.918 16.971 163.661 16.3854 163.679 15.6016ZM164.698 11.2402C164.698 12.1927 164.887 12.8877 165.265 13.3252C165.643 13.7627 166.117 13.9814 166.687 13.9814C167.252 13.9814 167.726 13.765 168.109 13.332C168.492 12.8945 168.683 12.2109 168.683 11.2812C168.683 10.3926 168.485 9.72266 168.088 9.27148C167.696 8.82031 167.222 8.59473 166.667 8.59473C166.12 8.59473 165.655 8.81803 165.272 9.26465C164.889 9.70671 164.698 10.3652 164.698 11.2402ZM171.705 6.39355V4.97852H172.935V6.39355H171.705ZM171.705 15V7.74023H172.935V15H171.705ZM174.815 15V7.74023H175.922V8.77246C176.456 7.97493 177.226 7.57617 178.233 7.57617C178.67 7.57617 179.071 7.65592 179.436 7.81543C179.805 7.97038 180.081 8.17546 180.263 8.43066C180.445 8.68587 180.573 8.98893 180.646 9.33984C180.692 9.56771 180.714 9.96647 180.714 10.5361V15H179.484V10.584C179.484 10.0827 179.436 9.70898 179.34 9.46289C179.245 9.21224 179.074 9.014 178.828 8.86816C178.586 8.71777 178.301 8.64258 177.973 8.64258C177.449 8.64258 176.996 8.80892 176.613 9.1416C176.235 9.47428 176.045 10.1055 176.045 11.0352V15H174.815ZM188.412 15L185.752 4.97852H187.113L188.637 11.5479C188.801 12.236 188.943 12.9196 189.061 13.5986C189.316 12.5277 189.467 11.9102 189.512 11.7461L191.419 4.97852H193.019L194.455 10.0508C194.815 11.3086 195.074 12.4912 195.234 13.5986C195.361 12.9652 195.528 12.2383 195.733 11.418L197.305 4.97852H198.638L195.89 15H194.612L192.5 7.36426C192.322 6.72624 192.217 6.33431 192.185 6.18848C192.08 6.64876 191.982 7.04069 191.891 7.36426L189.765 15H188.412ZM199.732 6.39355V4.97852H200.962V6.39355H199.732ZM199.732 15V7.74023H200.962V15H199.732ZM205.529 13.8994L205.707 14.9863C205.36 15.0592 205.05 15.0957 204.777 15.0957C204.33 15.0957 203.984 15.0251 203.738 14.8838C203.492 14.7425 203.319 14.5579 203.218 14.3301C203.118 14.0977 203.068 13.6123 203.068 12.874V8.69727H202.166V7.74023H203.068V5.94238L204.292 5.2041V7.74023H205.529V8.69727H204.292V12.9424C204.292 13.2933 204.312 13.5189 204.353 13.6191C204.399 13.7194 204.469 13.7992 204.565 13.8584C204.665 13.9176 204.806 13.9473 204.989 13.9473C205.125 13.9473 205.306 13.9313 205.529 13.8994ZM206.739 15V4.97852H207.969V8.57422C208.543 7.90885 209.268 7.57617 210.143 7.57617C210.681 7.57617 211.148 7.68327 211.544 7.89746C211.941 8.1071 212.223 8.39876 212.392 8.77246C212.565 9.14616 212.652 9.68848 212.652 10.3994V15H211.421V10.3994C211.421 9.78418 211.287 9.33757 211.018 9.05957C210.754 8.77702 210.378 8.63574 209.89 8.63574C209.526 8.63574 209.181 8.73145 208.858 8.92285C208.539 9.1097 208.311 9.36491 208.174 9.68848C208.038 10.012 207.969 10.4587 207.969 11.0283V15H206.739Z" fill="#283C63"/>
<line x1="341.882" y1="11" x2="240.941" y2="11" stroke="#7A808C" stroke-opacity="0.32"/>
</svg>
