<svg width="131" height="130" viewBox="0 0 131 130" fill="none" xmlns="http://www.w3.org/2000/svg">
<circle opacity="0.1" cx="65.5" cy="65" r="65" fill="#283C63"/>
<circle cx="65.5" cy="65" r="45" fill="#283C63"/>
<path d="M65.5001 51.6667C58.1534 51.6667 52.1667 57.6534 52.1667 65C52.1667 72.3467 58.1534 78.3334 65.5001 78.3334C72.8467 78.3334 78.8334 72.3467 78.8334 65C78.8334 57.6534 72.8467 51.6667 65.5001 51.6667ZM71.8734 61.9334L64.3134 69.4934C64.1267 69.68 63.8734 69.7867 63.6067 69.7867C63.3401 69.7867 63.0867 69.68 62.9001 69.4934L59.1267 65.72C58.7401 65.3334 58.7401 64.6934 59.1267 64.3067C59.5134 63.92 60.1534 63.92 60.5401 64.3067L63.6067 67.3734L70.4601 60.52C70.8467 60.1334 71.4867 60.1334 71.8734 60.52C72.2601 60.9067 72.2601 61.5334 71.8734 61.9334Z" fill="white"/>
</svg>
