<svg width="368" height="371" viewBox="0 0 368 371" fill="none" xmlns="http://www.w3.org/2000/svg">
<rect width="368" height="371" rx="50" fill="#4568AC"/>
<path d="M127.333 132.167C127.333 137.692 125.138 142.991 121.231 146.898C117.324 150.805 112.025 153 106.5 153C100.975 153 95.6756 150.805 91.7686 146.898C87.8616 142.991 85.6666 137.692 85.6666 132.167C85.6666 126.641 87.8616 121.342 91.7686 117.435C95.6756 113.528 100.975 111.333 106.5 111.333C112.025 111.333 117.324 113.528 121.231 117.435C125.138 121.342 127.333 126.641 127.333 132.167ZM127.333 132.167V69.6667C130.108 73.8334 130 93.6667 150 97" stroke="white" stroke-width="5" stroke-linecap="round" stroke-linejoin="round"/>
<path d="M156.5 236.333C168.006 236.333 177.333 227.006 177.333 215.5C177.333 203.994 168.006 194.667 156.5 194.667C144.994 194.667 135.667 203.994 135.667 215.5C135.667 227.006 144.994 236.333 156.5 236.333Z" stroke="white" stroke-width="5" stroke-linecap="round" stroke-linejoin="round"/>
<path d="M235.667 219.667C244.871 219.667 252.333 212.205 252.333 203C252.333 193.795 244.871 186.333 235.667 186.333C226.462 186.333 219 193.795 219 203C219 212.205 226.462 219.667 235.667 219.667Z" stroke="white" stroke-width="5" stroke-linecap="round" stroke-linejoin="round"/>
<path d="M177.333 215.5V144.667C177.333 137.083 177.333 133.292 179.392 130.933C181.442 128.583 185.617 128.017 193.958 126.875C219.075 123.45 237.342 112.983 247.083 106.575C249.417 105.042 250.583 104.275 251.458 104.742C252.333 105.208 252.333 106.6 252.333 109.358V202.383" stroke="white" stroke-width="5" stroke-linecap="round" stroke-linejoin="round"/>
<path d="M177.333 161.333C217.333 161.333 244 141.892 252.333 136.333" stroke="white" stroke-width="5" stroke-linecap="round" stroke-linejoin="round"/>
</svg>
