<svg width="32" height="32" viewBox="0 0 32 32" fill="none" xmlns="http://www.w3.org/2000/svg">
<path d="M11.2 22.6667L16 17.8667L20.8 22.6667L22.6666 20.8001L17.8666 16.0001L22.6666 11.2001L20.8 9.33341L16 14.1334L11.2 9.33341L9.33329 11.2001L14.1333 16.0001L9.33329 20.8001L11.2 22.6667ZM16 29.3334C14.1555 29.3334 12.4222 28.9832 10.8 28.2827C9.17774 27.5823 7.76663 26.6325 6.56663 25.4334C5.36663 24.2343 4.41685 22.8232 3.71729 21.2001C3.01774 19.577 2.66752 17.8436 2.66663 16.0001C2.66574 14.1565 3.01596 12.4232 3.71729 10.8001C4.41863 9.17697 5.36841 7.76586 6.56663 6.56675C7.76485 5.36764 9.17596 4.41786 10.8 3.71741C12.424 3.01697 14.1573 2.66675 16 2.66675C17.8426 2.66675 19.576 3.01697 21.2 3.71741C22.824 4.41786 24.2351 5.36764 25.4333 6.56675C26.6315 7.76586 27.5817 9.17697 28.284 10.8001C28.9862 12.4232 29.336 14.1565 29.3333 16.0001C29.3306 17.8436 28.9804 19.577 28.2826 21.2001C27.5849 22.8232 26.6351 24.2343 25.4333 25.4334C24.2315 26.6325 22.8204 27.5827 21.2 28.2841C19.5795 28.9854 17.8462 29.3352 16 29.3334ZM16 26.6667C18.9777 26.6667 21.5 25.6334 23.5666 23.5667C25.6333 21.5001 26.6666 18.9779 26.6666 16.0001C26.6666 13.0223 25.6333 10.5001 23.5666 8.43341C21.5 6.36675 18.9777 5.33341 16 5.33341C13.0222 5.33341 10.5 6.36675 8.43329 8.43341C6.36663 10.5001 5.33329 13.0223 5.33329 16.0001C5.33329 18.9779 6.36663 21.5001 8.43329 23.5667C10.5 25.6334 13.0222 26.6667 16 26.6667Z" fill="#283C63"/>
</svg>
