<svg width="98" height="100" viewBox="0 0 98 100" fill="none" xmlns="http://www.w3.org/2000/svg">
<ellipse cx="49" cy="50" rx="49" ry="50" fill="#283C63" fill-opacity="0.7"/>
<ellipse cx="49" cy="50.5" rx="40" ry="40.5" fill="#283C63"/>
<path d="M48.1863 54.0833C46.7279 54.0833 45.4884 53.5607 44.4675 52.5155C43.4467 51.4704 42.9363 50.2013 42.9363 48.7083V37.9583C42.9363 36.4652 43.4467 35.1961 44.4675 34.151C45.4884 33.1058 46.7279 32.5833 48.1863 32.5833C49.6446 32.5833 50.8842 33.1058 51.905 34.151C52.9259 35.1961 53.4363 36.4652 53.4363 37.9583V48.7083C53.4363 50.2013 52.9259 51.4704 51.905 52.5155C50.8842 53.5607 49.6446 54.0833 48.1863 54.0833ZM46.4363 66.6249V61.1155C43.4029 60.6975 40.8946 59.3089 38.9113 56.9499C36.9279 54.5909 35.9363 51.8437 35.9363 48.7083H39.4363C39.4363 51.1867 40.2897 53.2997 41.9965 55.0472C43.7034 56.7946 45.7666 57.6678 48.1863 57.6666C50.6059 57.6654 52.6698 56.7917 54.3778 55.0454C56.0858 53.2991 56.9386 51.1867 56.9363 48.7083H60.4363C60.4363 51.8437 59.4446 54.5909 57.4613 56.9499C55.4779 59.3089 52.9696 60.6975 49.9363 61.1155V66.6249H46.4363Z" fill="white"/>
</svg>
