<svg width="37" height="37" viewBox="0 0 37 37" fill="none" xmlns="http://www.w3.org/2000/svg">
<circle cx="18.5" cy="18.5" r="18.5" fill="#4568AC"/>
<path d="M14 10V20.184C13.6796 20.0662 13.3414 20.004 13 20C12.4067 20 11.8266 20.1759 11.3333 20.5056C10.8399 20.8352 10.4554 21.3038 10.2284 21.8519C10.0013 22.4001 9.94189 23.0033 10.0576 23.5853C10.1734 24.1672 10.4591 24.7018 10.8787 25.1213C11.2982 25.5409 11.8328 25.8266 12.4147 25.9424C12.9967 26.0581 13.5999 25.9987 14.1481 25.7716C14.6962 25.5446 15.1648 25.1601 15.4944 24.6667C15.8241 24.1734 16 23.5933 16 23V13H23V17.184C22.6796 17.0662 22.3414 17.004 22 17C21.4067 17 20.8266 17.1759 20.3333 17.5056C19.8399 17.8352 19.4554 18.3038 19.2284 18.8519C19.0013 19.4001 18.9419 20.0033 19.0576 20.5853C19.1734 21.1672 19.4591 21.7018 19.8787 22.1213C20.2982 22.5409 20.8328 22.8266 21.4147 22.9424C21.9967 23.0581 22.5999 22.9987 23.1481 22.7716C23.6962 22.5446 24.1648 22.1601 24.4944 21.6667C24.8241 21.1734 25 20.5933 25 20V10H14Z" fill="white"/>
</svg>
