<svg width="14" height="14" viewBox="0 0 14 14" fill="none" xmlns="http://www.w3.org/2000/svg">
<path d="M5.25 9.33325V6.70825H4.375V5.83325H6.125V9.33325H5.25ZM6.70833 9.33325V5.83325H9.04167V9.33325H6.70833ZM7.58333 8.45825H8.16667V6.70825H7.58333V8.45825ZM7 12.8333C6.27083 12.8333 5.58795 12.6948 4.95133 12.4179C4.31472 12.141 3.76056 11.7667 3.28883 11.295C2.81711 10.8233 2.44281 10.2691 2.16592 9.6325C1.88903 8.99589 1.75039 8.31281 1.75 7.58325C1.74961 6.8537 1.88825 6.17081 2.16592 5.53458C2.44358 4.89836 2.8177 4.3442 3.28825 3.87209C3.75881 3.39997 4.31297 3.02567 4.95075 2.74917C5.58853 2.47267 6.27161 2.33403 7 2.33325H7.0875L6.18333 1.42909L7 0.583252L9.33333 2.91659L7 5.24992L6.18333 4.40409L7.0875 3.49992H7C5.8625 3.49992 4.89767 3.8962 4.1055 4.68875C3.31333 5.48131 2.91706 6.44614 2.91667 7.58325C2.91628 8.72036 3.31256 9.68539 4.1055 10.4783C4.89845 11.2713 5.86328 11.6674 7 11.6666C8.13672 11.6658 9.10175 11.2697 9.89508 10.4783C10.6884 9.68695 11.0845 8.72192 11.0833 7.58325H12.25C12.25 8.31242 12.1116 8.9955 11.8347 9.6325C11.5578 10.2695 11.1835 10.8237 10.7118 11.295C10.24 11.7663 9.68586 12.1406 9.04925 12.4179C8.41264 12.6952 7.72956 12.8336 7 12.8333Z" fill="#283C63"/>
</svg>
