<svg width="14" height="14" viewBox="0 0 14 14" fill="none" xmlns="http://www.w3.org/2000/svg">
<path d="M7 12.8333C6.27083 12.8333 5.58794 12.6948 4.95133 12.4179C4.31472 12.141 3.76056 11.7667 3.28883 11.295C2.81711 10.8233 2.44281 10.2691 2.16592 9.6325C1.88903 8.99589 1.75039 8.31281 1.75 7.58325H2.91667C2.91667 8.72075 3.31294 9.68578 4.1055 10.4783C4.89806 11.2709 5.86289 11.667 7 11.6666C8.13711 11.6662 9.10214 11.2701 9.89508 10.4783C10.688 9.68656 11.0841 8.72153 11.0833 7.58325C11.0826 6.44497 10.6865 5.48014 9.89508 4.68875C9.10369 3.89736 8.13867 3.50109 7 3.49992H6.9125L7.81667 4.40409L7 5.24992L4.66667 2.91659L7 0.583252L7.81667 1.42909L6.9125 2.33325H7C7.72917 2.33325 8.41225 2.47189 9.04925 2.74917C9.68625 3.02645 10.2404 3.40075 10.7118 3.87209C11.1831 4.34342 11.5574 4.89759 11.8347 5.53459C12.1119 6.17159 12.2504 6.85447 12.25 7.58325C12.2496 8.31203 12.1112 8.99511 11.8347 9.6325C11.5582 10.2699 11.1839 10.8241 10.7118 11.295C10.2396 11.7659 9.68547 12.1403 9.04925 12.4179C8.41303 12.6956 7.72994 12.834 7 12.8333ZM5.25 9.33325V6.70825H4.375V5.83325H6.125V9.33325H5.25ZM7.29167 9.33325C7.12639 9.33325 6.98794 9.27725 6.87633 9.16525C6.76472 9.05325 6.70872 8.91481 6.70833 8.74992V6.41659C6.70833 6.25131 6.76433 6.11286 6.87633 6.00125C6.98833 5.88964 7.12678 5.83364 7.29167 5.83325H8.45833C8.62361 5.83325 8.76225 5.88925 8.87425 6.00125C8.98625 6.11325 9.04206 6.2517 9.04167 6.41659V8.74992C9.04167 8.9152 8.98567 9.05384 8.87367 9.16584C8.76167 9.27784 8.62322 9.33364 8.45833 9.33325H7.29167ZM7.58333 8.45825H8.16667V6.70825H7.58333V8.45825Z" fill="#283C63"/>
</svg>
