<svg width="32" height="32" viewBox="0 0 32 32" fill="none" xmlns="http://www.w3.org/2000/svg">
<path fill-rule="evenodd" clip-rule="evenodd" d="M7.99992 2.66675C7.29267 2.66675 6.6144 2.9477 6.1143 3.4478C5.6142 3.94789 5.33325 4.62617 5.33325 5.33341V26.6667C5.33325 27.374 5.6142 28.0523 6.1143 28.5524C6.6144 29.0525 7.29267 29.3334 7.99992 29.3334H23.9999C24.7072 29.3334 25.3854 29.0525 25.8855 28.5524C26.3856 28.0523 26.6666 27.374 26.6666 26.6667V8.55208C26.6664 7.8449 26.3854 7.16673 25.8853 6.66675L22.6666 3.44808C22.1666 2.94795 21.4884 2.6669 20.7813 2.66675H7.99992ZM21.6506 14.3907C21.7779 14.2678 21.8795 14.1206 21.9494 13.958C22.0193 13.7953 22.056 13.6203 22.0576 13.4433C22.0591 13.2662 22.0254 13.0907 21.9583 12.9268C21.8913 12.7629 21.7923 12.6141 21.6671 12.4889C21.5419 12.3637 21.3931 12.2647 21.2292 12.1977C21.0653 12.1306 20.8898 12.0969 20.7127 12.0984C20.5357 12.1 20.3607 12.1367 20.198 12.2066C20.0354 12.2765 19.8882 12.3781 19.7653 12.5054L14.1093 18.1627L12.2226 16.2761C11.9711 16.0332 11.6343 15.8988 11.2847 15.9018C10.9351 15.9049 10.6007 16.0451 10.3535 16.2923C10.1063 16.5395 9.96606 16.874 9.96302 17.2235C9.95998 17.5731 10.0944 17.9099 10.3373 18.1614L13.0706 20.8961C13.2068 21.0323 13.3685 21.1404 13.5465 21.2142C13.7245 21.2879 13.9153 21.3259 14.1079 21.3259C14.3006 21.3259 14.4914 21.2879 14.6693 21.2142C14.8473 21.1404 15.0091 21.0323 15.1453 20.8961L21.6506 14.3907Z" fill="#283C63"/>
</svg>
