<svg width="18" height="20" viewBox="0 0 18 20" fill="none" xmlns="http://www.w3.org/2000/svg">
<path fill-rule="evenodd" clip-rule="evenodd" d="M2.51534 13.9998L3.69534 12.8178C4.07334 12.4398 4.28134 11.9378 4.28134 11.4038V6.72683C4.28134 5.36983 4.87134 4.07283 5.90134 3.17083C6.93934 2.26083 8.26134 1.86083 9.63834 2.04183C11.9653 2.35083 13.7203 4.45483 13.7203 6.93683V11.4038C13.7203 11.9378 13.9283 12.4398 14.3053 12.8168L15.4863 13.9998H2.51534ZM11.0003 16.3408C11.0003 17.2398 10.0843 17.9998 9.00034 17.9998C7.91634 17.9998 7.00034 17.2398 7.00034 16.3408V15.9998H11.0003V16.3408ZM17.5213 13.2078L15.7203 11.4038V6.93683C15.7203 3.45583 13.2183 0.498833 9.90034 0.0598333C7.97834 -0.196167 6.03834 0.390833 4.58334 1.66683C3.11934 2.94883 2.28134 4.79283 2.28134 6.72683L2.28034 11.4038L0.479335 13.2078C0.0103353 13.6778 -0.128665 14.3768 0.125335 14.9898C0.380335 15.6038 0.973335 15.9998 1.63734 15.9998H5.00034V16.3408C5.00034 18.3588 6.79434 19.9998 9.00034 19.9998C11.2063 19.9998 13.0003 18.3588 13.0003 16.3408V15.9998H16.3633C17.0273 15.9998 17.6193 15.6038 17.8733 14.9908C18.1283 14.3768 17.9903 13.6768 17.5213 13.2078Z" fill="#231F20"/>
</svg>
