<svg width="19" height="20" viewBox="0 0 19 20" fill="none" xmlns="http://www.w3.org/2000/svg">
<path d="M18 11H17V9.5C17 8.94998 16.55 8.5 16 8.5H14V6C14 5.72501 13.775 5.5 13.5 5.5H11.47C11.49 5.33499 11.5 5.16998 11.5 5C11.5 2.51999 9.48001 0.5 7 0.5C4.51999 0.5 2.5 2.51999 2.5 5C2.5 5.16998 2.51001 5.33499 2.53 5.5H2C0.910005 5.5 0 6.41001 0 7.5V17.5C0 18.605 0.89499 19.5 2 19.5H16C16.55 19.5 17 19.05 17 18.5V17H18C18.55 17 19 16.55 19 16V12C19 11.45 18.55 11 18 11ZM13 6.5V8.5H9.82001C10.465 7.97998 10.955 7.28998 11.235 6.5H13ZM7 1.5C8.92999 1.5 10.5 3.07 10.5 5C10.5 6.93 8.92999 8.5 7 8.5C5.07 8.5 3.5 6.93 3.5 5C3.5 3.07 5.07 1.5 7 1.5ZM2 6.5C2 6.5 2.435 6.5 2.76502 6.5C3.04502 7.28998 3.53501 7.97998 4.18 8.5H2C1.45001 8.5 1 8.04999 1 7.5C1 6.97 1.465 6.5 2 6.5ZM16 18.5H2C1.45001 18.5 1 18.05 1 17.5C1 17.5 1 9.23499 1 9.22998C1.00501 9.44501 1.86999 9.5 2 9.5H16V11H14C12.345 11 11 12.345 11 14C11 15.655 12.345 17 14 17H16V18.5ZM18 16H14C12.895 16 12 15.105 12 14C12 12.895 12.895 12 14 12H18V16Z" fill="black"/>
<path d="M7 6.5C6.72436 6.5 6.5 6.27563 6.5 6C6.5 5.72388 6.27613 5.5 6 5.5C5.72387 5.5 5.5 5.72388 5.5 6C5.5 6.65097 5.91925 7.20078 6.5 7.40784V7.5C6.5 7.77612 6.72388 8 7 8C7.27612 8 7.5 7.77612 7.5 7.5V7.40786C8.08075 7.2008 8.5 6.65097 8.5 6C8.5 5.17285 7.82715 4.5 7 4.5C6.72436 4.5 6.5 4.27564 6.5 4C6.5 3.72436 6.72436 3.5 7 3.5C7.27564 3.5 7.5 3.72436 7.5 4C7.5 4.27612 7.72388 4.5 8 4.5C8.27612 4.5 8.5 4.27612 8.5 4C8.5 3.34903 8.08075 2.79919 7.5 2.59213V2.5C7.5 2.22387 7.27612 2 7 2C6.72388 2 6.5 2.22387 6.5 2.5V2.59213C5.91925 2.79919 5.5 3.34903 5.5 4C5.5 4.82715 6.17285 5.5 7 5.5C7.27564 5.5 7.5 5.72436 7.5 6C7.5 6.27563 7.27564 6.5 7 6.5Z" fill="black"/>
<path d="M14 14.5C14.2761 14.5 14.5 14.2761 14.5 14C14.5 13.7239 14.2761 13.5 14 13.5C13.7239 13.5 13.5 13.7239 13.5 14C13.5 14.2761 13.7239 14.5 14 14.5Z" fill="black"/>
</svg>
