<svg width="20" height="20" viewBox="0 0 20 20" fill="none" xmlns="http://www.w3.org/2000/svg">
<path d="M7.08334 12.5003H12.9167M7.08334 15.0003H10M15.8333 1.66699H4.16668C3.94566 1.66699 3.7337 1.75479 3.57742 1.91107C3.42114 2.06735 3.33334 2.27931 3.33334 2.50033V17.5003C3.33334 17.7213 3.42114 17.9333 3.57742 18.0896C3.7337 18.2459 3.94566 18.3337 4.16668 18.3337H15.8333C16.0544 18.3337 16.2663 18.2459 16.4226 18.0896C16.5789 17.9333 16.6667 17.7213 16.6667 17.5003V2.50033C16.6667 2.27931 16.5789 2.06735 16.4226 1.91107C16.2663 1.75479 16.0544 1.66699 15.8333 1.66699Z" stroke="black" stroke-width="2" stroke-linecap="round" stroke-linejoin="round"/>
<path d="M12.5 5.41699L9.16667 8.75033L7.5 7.08366" stroke="black" stroke-width="2" stroke-linecap="round" stroke-linejoin="round"/>
</svg>
