<svg width="24" height="24" viewBox="0 0 24 24" fill="none" xmlns="http://www.w3.org/2000/svg">
<path d="M11.8542 14C11.0382 14 10.3446 13.7083 9.77344 13.125C9.20226 12.5417 8.91667 11.8333 8.91667 11V5C8.91667 4.16667 9.20226 3.45833 9.77344 2.875C10.3446 2.29167 11.0382 2 11.8542 2C12.6701 2 13.3637 2.29167 13.9349 2.875C14.5061 3.45833 14.7917 4.16667 14.7917 5V11C14.7917 11.8333 14.5061 12.5417 13.9349 13.125C13.3637 13.7083 12.6701 14 11.8542 14ZM10.875 21V17.925C9.17778 17.6917 7.77431 16.9167 6.66458 15.6C5.55486 14.2833 5 12.75 5 11H6.95833C6.95833 12.3833 7.43584 13.5627 8.39085 14.538C9.34587 15.5133 10.5003 16.0007 11.8542 16C13.208 15.9993 14.3628 15.5117 15.3185 14.537C16.2741 13.5623 16.7513 12.3833 16.75 11H18.7083C18.7083 12.75 18.1535 14.2833 17.0437 15.6C15.934 16.9167 14.5306 17.6917 12.8333 17.925V21H10.875Z" fill="white"/>
</svg>
