<svg width="25" height="24" viewBox="0 0 25 24" fill="none" xmlns="http://www.w3.org/2000/svg">
<path fill-rule="evenodd" clip-rule="evenodd" d="M13.063 3.2H11.937L11.292 5.778L10.645 5.978C10.268 6.09417 9.90271 6.24551 9.554 6.43L8.955 6.747L6.675 5.379L5.879 6.176L7.247 8.456L6.93 9.054C6.74516 9.40268 6.5935 9.76795 6.477 10.145L6.278 10.792L3.7 11.437V12.563L6.278 13.208L6.478 13.855C6.59333 14.2337 6.744 14.5973 6.93 14.946L7.247 15.545L5.879 17.825L6.676 18.621L8.956 17.253L9.554 17.57C9.90267 17.7553 10.2663 17.9063 10.645 18.023L11.292 18.222L11.937 20.8H13.063L13.708 18.222L14.355 18.022C14.732 17.9058 15.0973 17.7545 15.446 17.57L16.045 17.253L18.325 18.621L19.121 17.824L17.753 15.544L18.07 14.946C18.2553 14.5973 18.4063 14.2337 18.523 13.855L18.722 13.208L21.3 12.563V11.437L18.722 10.792L18.522 10.145C18.4058 9.76798 18.2545 9.40271 18.07 9.054L17.753 8.455L19.121 6.175L18.324 5.379L16.044 6.747L15.446 6.43C15.0973 6.24516 14.7321 6.0935 14.355 5.977L13.708 5.778L13.063 3.2ZM16.008 5.37L17.841 4.27C18.0321 4.15536 18.2561 4.10786 18.4773 4.13504C18.6985 4.16221 18.9043 4.26251 19.062 4.42L20.08 5.438C20.2375 5.5957 20.3378 5.80149 20.365 6.02271C20.3921 6.24392 20.3446 6.46787 20.23 6.659L19.13 8.492C19.35 8.90533 19.53 9.33867 19.67 9.792L21.743 10.311C21.9592 10.3652 22.1512 10.49 22.2883 10.6658C22.4255 10.8415 22.5 11.0581 22.5 11.281V12.719C22.5 12.9419 22.4255 13.1585 22.2883 13.3342C22.1512 13.51 21.9592 13.6348 21.743 13.689L19.67 14.208C19.53 14.6613 19.35 15.0947 19.13 15.508L20.23 17.341C20.3446 17.5321 20.3921 17.7561 20.365 17.9773C20.3378 18.1985 20.2375 18.4043 20.08 18.562L19.062 19.58C18.9043 19.7375 18.6985 19.8378 18.4773 19.865C18.2561 19.8921 18.0321 19.8446 17.841 19.73L16.008 18.63C15.5947 18.85 15.1613 19.03 14.708 19.17L14.189 21.243C14.1348 21.4592 14.01 21.6512 13.8342 21.7883C13.6585 21.9255 13.4419 22 13.219 22H11.781C11.5581 22 11.3415 21.9255 11.1658 21.7883C10.99 21.6512 10.8652 21.4592 10.811 21.243L10.292 19.17C9.8427 19.0312 9.40744 18.8504 8.992 18.63L7.159 19.73C6.96787 19.8446 6.74392 19.8921 6.52271 19.865C6.30149 19.8378 6.0957 19.7375 5.938 19.58L4.92 18.562C4.76251 18.4043 4.66221 18.1985 4.63504 17.9773C4.60786 17.7561 4.65536 17.5321 4.77 17.341L5.87 15.508C5.64964 15.0926 5.46885 14.6573 5.33 14.208L3.257 13.689C3.04092 13.6349 2.8491 13.5101 2.71196 13.3346C2.57483 13.1591 2.50023 12.9428 2.5 12.72V11.282C2.50001 11.0591 2.5745 10.8425 2.71166 10.6668C2.84881 10.491 3.04075 10.3662 3.257 10.312L5.33 9.793C5.47 9.33967 5.65 8.90633 5.87 8.493L4.77 6.66C4.65536 6.46887 4.60786 6.24492 4.63504 6.02371C4.66221 5.80249 4.76251 5.5967 4.92 5.439L5.938 4.42C6.0957 4.26251 6.30149 4.16221 6.52271 4.13504C6.74392 4.10786 6.96787 4.15536 7.159 4.27L8.992 5.37C9.40533 5.15 9.83867 4.97 10.292 4.83L10.811 2.757C10.8651 2.54092 10.9899 2.3491 11.1654 2.21196C11.3409 2.07483 11.5572 2.00023 11.78 2H13.218C13.4409 2.00001 13.6575 2.0745 13.8332 2.21166C14.009 2.34881 14.1338 2.54075 14.188 2.757L14.707 4.83C15.1603 4.97 15.5937 5.15 16.007 5.37H16.008ZM12.5 14.8C13.2426 14.8 13.9548 14.505 14.4799 13.9799C15.005 13.4548 15.3 12.7426 15.3 12C15.3 11.2574 15.005 10.5452 14.4799 10.0201C13.9548 9.495 13.2426 9.2 12.5 9.2C11.7574 9.2 11.0452 9.495 10.5201 10.0201C9.995 10.5452 9.7 11.2574 9.7 12C9.7 12.7426 9.995 13.4548 10.5201 13.9799C11.0452 14.505 11.7574 14.8 12.5 14.8ZM12.5 16C11.4391 16 10.4217 15.5786 9.67157 14.8284C8.92143 14.0783 8.5 13.0609 8.5 12C8.5 10.9391 8.92143 9.92172 9.67157 9.17157C10.4217 8.42143 11.4391 8 12.5 8C13.5609 8 14.5783 8.42143 15.3284 9.17157C16.0786 9.92172 16.5 10.9391 16.5 12C16.5 13.0609 16.0786 14.0783 15.3284 14.8284C14.5783 15.5786 13.5609 16 12.5 16Z" fill="white"/>
</svg>
