<svg width="20" height="20" viewBox="0 0 20 20" fill="none" xmlns="http://www.w3.org/2000/svg">
<path opacity="0.2" d="M19.1667 13.3333L13.3334 19.1666V13.3333H19.1667Z" fill="white"/>
<path d="M5.83333 6.66667C5.83333 6.44565 5.92113 6.23369 6.07741 6.07741C6.23369 5.92113 6.44565 5.83333 6.66667 5.83333H13.3333C13.5543 5.83333 13.7663 5.92113 13.9226 6.07741C14.0789 6.23369 14.1667 6.44565 14.1667 6.66667C14.1667 6.88768 14.0789 7.09964 13.9226 7.25592C13.7663 7.4122 13.5543 7.5 13.3333 7.5H6.66667C6.44565 7.5 6.23369 7.4122 6.07741 7.25592C5.92113 7.09964 5.83333 6.88768 5.83333 6.66667ZM6.66667 10.8333H13.3333C13.5543 10.8333 13.7663 10.7455 13.9226 10.5893C14.0789 10.433 14.1667 10.221 14.1667 10C14.1667 9.77899 14.0789 9.56702 13.9226 9.41074C13.7663 9.25446 13.5543 9.16667 13.3333 9.16667H6.66667C6.44565 9.16667 6.23369 9.25446 6.07741 9.41074C5.92113 9.56702 5.83333 9.77899 5.83333 10C5.83333 10.221 5.92113 10.433 6.07741 10.5893C6.23369 10.7455 6.44565 10.8333 6.66667 10.8333ZM10 12.5H6.66667C6.44565 12.5 6.23369 12.5878 6.07741 12.7441C5.92113 12.9004 5.83333 13.1123 5.83333 13.3333C5.83333 13.5543 5.92113 13.7663 6.07741 13.9226C6.23369 14.0789 6.44565 14.1667 6.66667 14.1667H10C10.221 14.1667 10.433 14.0789 10.5893 13.9226C10.7455 13.7663 10.8333 13.5543 10.8333 13.3333C10.8333 13.1123 10.7455 12.9004 10.5893 12.7441C10.433 12.5878 10.221 12.5 10 12.5ZM20 1.66667V12.9885C20.0007 13.2075 19.9579 13.4244 19.874 13.6266C19.7901 13.8289 19.6669 14.0125 19.5115 14.1667L14.1667 19.5115C14.0125 19.6669 13.8289 19.7901 13.6266 19.874C13.4244 19.9579 13.2075 20.0007 12.9885 20H1.66667C1.22464 20 0.800716 19.8244 0.488155 19.5118C0.175595 19.1993 0 18.7754 0 18.3333V1.66667C0 1.22464 0.175595 0.800716 0.488155 0.488155C0.800716 0.175595 1.22464 0 1.66667 0H18.3333C18.7754 0 19.1993 0.175595 19.5118 0.488155C19.8244 0.800716 20 1.22464 20 1.66667ZM1.66667 18.3333H12.5V13.3333C12.5 13.1123 12.5878 12.9004 12.7441 12.7441C12.9004 12.5878 13.1123 12.5 13.3333 12.5H18.3333V1.66667H1.66667V18.3333ZM14.1667 14.1667V17.1562L17.1552 14.1667H14.1667Z" fill="white"/>
</svg>
