<svg width="37" height="37" viewBox="0 0 37 37" fill="none" xmlns="http://www.w3.org/2000/svg">
<circle cx="18.5" cy="18.5" r="18.5" fill="#4568AC"/>
<path d="M25.0625 10.625H11.9375C11.5894 10.625 11.2556 10.7633 11.0094 11.0094C10.7633 11.2556 10.625 11.5894 10.625 11.9375V25.0625C10.625 25.4106 10.7633 25.7444 11.0094 25.9906C11.2556 26.2367 11.5894 26.375 11.9375 26.375H20.8535C21.0259 26.3753 21.1966 26.3414 21.3558 26.2754C21.5151 26.2094 21.6597 26.1125 21.7812 25.9903L25.9903 21.7812C26.1125 21.6597 26.2094 21.5151 26.2754 21.3558C26.3414 21.1966 26.3753 21.0259 26.375 20.8535V11.9375C26.375 11.5894 26.2367 11.2556 25.9906 11.0094C25.7444 10.7633 25.4106 10.625 25.0625 10.625ZM15.875 15.2188H21.125C21.299 15.2188 21.466 15.2879 21.589 15.411C21.7121 15.534 21.7812 15.701 21.7812 15.875C21.7812 16.049 21.7121 16.216 21.589 16.339C21.466 16.4621 21.299 16.5312 21.125 16.5312H15.875C15.701 16.5312 15.534 16.4621 15.411 16.339C15.2879 16.216 15.2188 16.049 15.2188 15.875C15.2188 15.701 15.2879 15.534 15.411 15.411C15.534 15.2879 15.701 15.2188 15.875 15.2188ZM18.5 21.7812H15.875C15.701 21.7812 15.534 21.7121 15.411 21.589C15.2879 21.466 15.2188 21.299 15.2188 21.125C15.2188 20.951 15.2879 20.784 15.411 20.661C15.534 20.5379 15.701 20.4688 15.875 20.4688H18.5C18.674 20.4688 18.841 20.5379 18.964 20.661C19.0871 20.784 19.1562 20.951 19.1562 21.125C19.1562 21.299 19.0871 21.466 18.964 21.589C18.841 21.7121 18.674 21.7812 18.5 21.7812ZM15.875 19.1562C15.701 19.1562 15.534 19.0871 15.411 18.964C15.2879 18.841 15.2188 18.674 15.2188 18.5C15.2188 18.326 15.2879 18.159 15.411 18.036C15.534 17.9129 15.701 17.8438 15.875 17.8438H21.125C21.299 17.8438 21.466 17.9129 21.589 18.036C21.7121 18.159 21.7812 18.326 21.7812 18.5C21.7812 18.674 21.7121 18.841 21.589 18.964C21.466 19.0871 21.299 19.1562 21.125 19.1562H15.875ZM21.125 24.791V21.125H24.7918L21.125 24.791Z" fill="white"/>
</svg>
