<svg width="162" height="164" viewBox="0 0 162 164" fill="none" xmlns="http://www.w3.org/2000/svg">
<path d="M0 9.99999C0 4.47714 4.47715 0 10 0H152C157.523 0 162 4.47715 162 10V158.321C162 161.082 159.761 163.321 157 163.321H10C4.47716 163.321 0 158.843 0 153.321V9.99999Z" fill="#4568AC"/>
<path d="M62.6794 71.8505C62.6794 74.2829 61.7131 76.6156 59.9932 78.3355C58.2733 80.0555 55.9405 81.0217 53.5082 81.0217C51.0758 81.0217 48.7431 80.0555 47.0232 78.3355C45.3032 76.6156 44.337 74.2829 44.337 71.8505C44.337 69.4182 45.3032 67.0854 47.0232 65.3655C48.7431 63.6456 51.0758 62.6793 53.5082 62.6793C55.9405 62.6793 58.2733 63.6456 59.9932 65.3655C61.7131 67.0854 62.6794 69.4182 62.6794 71.8505ZM62.6794 71.8505V44.3369C63.901 46.1712 64.8805 53.875 73.6848 55.3423" stroke="white" stroke-width="5" stroke-linecap="round" stroke-linejoin="round"/>
<path d="M75.5191 117.706C80.5842 117.706 84.6903 113.6 84.6903 108.535C84.6903 103.47 80.5842 99.364 75.5191 99.364C70.454 99.364 66.3479 103.47 66.3479 108.535C66.3479 113.6 70.454 117.706 75.5191 117.706Z" stroke="white" stroke-width="5" stroke-linecap="round" stroke-linejoin="round"/>
<path d="M110.37 110.369C114.422 110.369 117.707 107.085 117.707 103.033C117.707 98.9804 114.422 95.6956 110.37 95.6956C106.317 95.6956 103.033 98.9804 103.033 103.033C103.033 107.085 106.317 110.369 110.37 110.369Z" stroke="white" stroke-width="5" stroke-linecap="round" stroke-linejoin="round"/>
<path d="M84.6902 108.535V77.3532C84.6902 74.0149 84.6902 72.3458 85.5963 71.3076C86.4987 70.2731 88.3367 70.0236 92.0088 69.521C103.066 68.0133 111.107 63.4057 115.395 60.5846C116.423 59.9096 116.936 59.5721 117.321 59.7775C117.706 59.983 117.706 60.5956 117.706 61.8099V102.761" stroke="white" stroke-width="5" stroke-linecap="round" stroke-linejoin="round"/>
<path d="M84.6902 84.6902C102.299 84.6902 114.038 76.1317 117.706 73.6848" stroke="white" stroke-width="5" stroke-linecap="round" stroke-linejoin="round"/>
</svg>
