<svg width="25" height="25" viewBox="0 0 25 25" fill="none" xmlns="http://www.w3.org/2000/svg">
<path d="M11.9385 0.0677471C11.8311 0.10681 11.6895 0.160521 11.626 0.199583C11.3867 0.326536 11.0205 0.717161 10.874 1.00525C10.7275 1.27868 10.7178 1.3324 10.7178 1.81091C10.7178 2.26501 10.7324 2.35779 10.8496 2.60193C11.0205 2.97302 11.3281 3.2904 11.6748 3.46618L11.958 3.60779L10.2881 3.6322C9.37012 3.64685 8.49609 3.68103 8.34473 3.71033C7.49023 3.87146 6.60156 4.23767 5.86914 4.72595C4.89746 5.37048 3.9502 6.58142 3.56445 7.67517L3.50098 7.85095L3.05664 7.89978C2.19727 8.00232 1.53809 8.3197 0.942383 8.92517C0.673828 9.19861 0.541992 9.38415 0.371094 9.73083C0.078125 10.3265 0 10.6537 0 11.2884C0 12.641 0.678711 13.7689 1.86523 14.3646C2.20215 14.5355 2.78809 14.7015 3.05176 14.7015C3.38379 14.7015 3.45215 14.7406 3.54004 14.9847C4.19922 16.7523 5.64941 18.1634 7.40234 18.7494C8.37891 19.0765 8.31543 19.0717 12.5244 19.0717C16.0107 19.0717 16.3721 19.0619 16.7725 18.9838C18.9258 18.5492 20.5957 17.1869 21.4209 15.1898C21.5186 14.9603 21.6162 14.7601 21.6504 14.7406C21.6797 14.7211 21.8018 14.7015 21.9238 14.7015C22.2119 14.7015 22.7881 14.5404 23.1348 14.3646C24.3213 13.7689 25 12.641 25 11.2884C25 10.6879 24.9268 10.3412 24.6826 9.83337C24.1602 8.72009 23.1445 8.01696 21.875 7.89001L21.5527 7.85583L21.4404 7.55798C21.0449 6.52283 20.1562 5.3949 19.2285 4.75525C18.5303 4.27185 17.5732 3.87634 16.7041 3.71033C16.5527 3.68103 15.6787 3.64685 14.7607 3.6322L13.0908 3.60779L13.374 3.46618C13.7207 3.2904 14.0283 2.97302 14.1992 2.60193C14.3164 2.35779 14.3311 2.26501 14.3311 1.81091C14.3311 1.34216 14.3164 1.2738 14.1895 1.01501C14.0186 0.678099 13.6133 0.282591 13.2959 0.140989C13.0078 0.00915337 12.2412 -0.0299091 11.9385 0.0677471ZM9.22852 8.67614C9.78516 8.8031 10.332 9.18884 10.6445 9.67224C11.4551 10.9369 10.8252 12.6459 9.37988 13.0902C8.40332 13.3929 7.36816 12.9974 6.78711 12.1039C6.52832 11.7084 6.42578 11.2982 6.45508 10.7611C6.47949 10.1801 6.69922 9.69665 7.12402 9.28161C7.70508 8.71032 8.45215 8.49548 9.22852 8.67614ZM16.6553 8.64685C16.8018 8.67126 17.0752 8.7738 17.2656 8.86657C18.6768 9.55993 18.9893 11.3959 17.876 12.5092C16.5479 13.8373 14.3164 13.1097 14.0039 11.2494C13.7549 9.75036 15.1611 8.36853 16.6553 8.64685Z" fill="white"/>
<path d="M11.6113 20.1263C9.08691 20.3705 6.66016 21.767 5.19043 23.8226C4.93652 24.1791 4.49219 24.9017 4.49219 24.9652C4.49219 24.9847 8.10547 25.0043 12.5244 25.0043C16.9434 25.0043 20.5566 24.9847 20.5566 24.9652C20.5566 24.9408 20.4492 24.7455 20.3174 24.5258C19.585 23.3002 18.7207 22.392 17.5537 21.6107C15.8105 20.4437 13.7256 19.9213 11.6113 20.1263Z" fill="white"/>
</svg>
