<svg width="20" height="19" viewBox="0 0 20 19" fill="none" xmlns="http://www.w3.org/2000/svg">
<path d="M4.29175 5H3.25008C2.69755 5 2.16764 5.21071 1.77694 5.58579C1.38624 5.96086 1.16675 6.46957 1.16675 7V16C1.16675 16.5304 1.38624 17.0391 1.77694 17.4142C2.16764 17.7893 2.69755 18 3.25008 18H12.6251C13.1776 18 13.7075 17.7893 14.0982 17.4142C14.4889 17.0391 14.7084 16.5304 14.7084 16V15" stroke="black" stroke-width="2" stroke-linecap="round" stroke-linejoin="round"/>
<path d="M13.6667 3.00011L16.7917 6.00011M18.2344 4.58511C18.6446 4.19126 18.8751 3.65709 18.8751 3.10011C18.8751 2.54312 18.6446 2.00895 18.2344 1.61511C17.8241 1.22126 17.2677 1 16.6875 1C16.1073 1 15.5509 1.22126 15.1406 1.61511L6.375 10.0001V13.0001H9.5L18.2344 4.58511Z" stroke="black" stroke-width="2" stroke-linecap="round" stroke-linejoin="round"/>
</svg>
