<svg width="22" height="23" viewBox="0 0 22 23" fill="none" xmlns="http://www.w3.org/2000/svg">
<path d="M21.7394 21.7525C21.9063 21.585 22 21.3581 22 21.1215C22 20.8849 21.9063 20.658 21.7394 20.4904L15.3143 14.0639C16.5647 12.5283 17.246 10.6074 17.2429 8.62666C17.2403 6.33952 16.3312 4.1468 14.7149 2.52955C13.0986 0.912298 10.9072 0.00258946 8.62145 0C6.3357 0.00258946 4.1443 0.912298 2.52802 2.52955C0.911748 4.1468 0.0025879 6.33952 0 8.62666C0.0025879 10.9138 0.911748 13.1065 2.52802 14.7238C4.1443 16.341 6.3357 17.2507 8.62145 17.2533C10.601 17.2564 12.5208 16.5747 14.0554 15.3235L20.4805 21.7525C20.6473 21.9191 20.8732 22.0127 21.1088 22.013C21.2258 22.0132 21.3418 21.9903 21.45 21.9456C21.5582 21.9009 21.6565 21.8353 21.7394 21.7525ZM15.4597 8.62666C15.4578 10.4404 14.7368 12.1794 13.455 13.4619C12.1733 14.7445 10.4354 15.4659 8.62268 15.4678C6.80977 15.4662 5.07156 14.745 3.78952 13.4624C2.50748 12.1798 1.78636 10.4407 1.78442 8.62666C1.78636 6.81287 2.50732 5.07392 3.78909 3.79137C5.07086 2.50883 6.80876 1.78744 8.62145 1.7855C10.4344 1.78712 12.1726 2.50836 13.4546 3.79094C14.7366 5.07352 15.4578 6.81265 15.4597 8.62666Z" fill="#030303"/>
</svg>
