<svg width="24" height="22" viewBox="0 0 24 22" fill="none" xmlns="http://www.w3.org/2000/svg">
<path fill-rule="evenodd" clip-rule="evenodd" d="M9.09776 2.416L16.3144 5.66286C18.5081 6.64983 20.2346 7.42659 21.4059 8.16216C22.5627 8.88869 23.4667 9.75011 23.4667 11C23.4667 12.2499 22.5627 13.1113 21.4059 13.8379C20.2346 14.5734 18.5081 15.3502 16.3144 16.3372L9.09776 19.584C7.75692 20.1873 6.71384 20.6566 5.89936 20.9611C5.10236 21.2592 4.39005 21.4549 3.75668 21.386C2.22045 21.219 0.898533 20.1655 0.578598 18.6783C0.442999 18.0479 0.632605 17.3428 0.905024 16.6103C1.18709 15.8518 1.63538 14.878 2.20651 13.6374L2.2219 13.6039C2.66826 12.6343 2.84004 12.2517 2.92769 11.87C3.05954 11.2958 3.05954 10.7043 2.92769 10.1301C2.84004 9.74838 2.66826 9.36576 2.22191 8.39613L2.2065 8.36268C1.63538 7.12204 1.18709 6.1482 0.905023 5.38975C0.632605 4.65722 0.442999 3.95208 0.578598 3.32173C0.898534 1.83449 2.22045 0.781041 3.75668 0.613985C4.39005 0.545111 5.10236 0.740842 5.89936 1.03888C6.71384 1.34345 7.75693 1.81275 9.09776 2.416ZM5.33895 2.53752C4.55583 2.24468 4.15577 2.18002 3.92965 2.20461C2.98238 2.30762 2.29828 2.93552 2.14281 3.65823C2.11389 3.7927 2.13409 4.10443 2.40468 4.83204C2.6631 5.52692 3.08548 6.4458 3.6753 7.72707C3.68822 7.75514 3.70099 7.78288 3.71362 7.81028C4.10936 8.66968 4.35795 9.20951 4.48711 9.772C4.67307 10.5818 4.67307 11.4182 4.48711 12.228C4.35795 12.7905 4.10936 13.3304 3.71361 14.1898C3.70099 14.2172 3.68822 14.2449 3.6753 14.273C3.08548 15.5542 2.6631 16.4731 2.40468 17.168C2.13409 17.8956 2.11389 18.2073 2.14281 18.3418C2.29828 19.0645 2.98238 19.6924 3.92965 19.7954C4.15577 19.82 4.55583 19.7553 5.33895 19.4625C6.09876 19.1784 7.09442 18.7309 8.47017 18.1119L15.5932 14.9072C17.8655 13.8848 19.4892 13.1522 20.5549 12.4829C21.6465 11.7974 21.8667 11.352 21.8667 11C21.8667 10.648 21.6465 10.2026 20.5549 9.5171C19.4892 8.84781 17.8656 8.11522 15.5932 7.09288L8.47018 3.88813C7.09442 3.26916 6.09876 2.82165 5.33895 2.53752Z" fill="white"/>
</svg>
