<svg width="19" height="19" viewBox="0 0 19 19" fill="none" xmlns="http://www.w3.org/2000/svg">
<path fill-rule="evenodd" clip-rule="evenodd" d="M9.49999 0.75C4.66753 0.75 0.75 4.66748 0.75 9.49999C0.75 14.3324 4.66753 18.25 9.49999 18.25C14.3325 18.25 18.25 14.3325 18.25 9.49999C18.25 4.66748 14.3325 0.75 9.49999 0.75ZM9.49999 16.5C5.64021 16.5 2.50001 13.3598 2.50001 9.49999C2.50001 5.64017 5.64017 2.50001 9.49999 2.50001C13.3598 2.50001 16.5 5.64017 16.5 9.49999C16.5 13.3598 13.3598 16.5 9.49999 16.5ZM10.5957 6C10.5957 6.63443 10.1338 7.09376 9.50889 7.09376C8.85875 7.09376 8.40815 6.63439 8.40815 5.98786C8.40815 5.36647 8.87093 4.90628 9.50889 4.90628C10.1338 4.90628 10.5957 5.36647 10.5957 6ZM8.62693 8.625H10.3769V13.875H8.62693V8.625Z" fill="white"/>
</svg>
