<svg width="22" height="18" viewBox="0 0 22 18" fill="none" xmlns="http://www.w3.org/2000/svg">
<path fill-rule="evenodd" clip-rule="evenodd" d="M5.71199 0.970008C9.23031 0.655546 12.7697 0.655546 16.288 0.970008L17.806 1.10601C18.5409 1.17163 19.2321 1.48308 19.7681 1.99006C20.3042 2.49704 20.6536 3.16993 20.76 3.90001C21.2538 7.28208 21.2538 10.7179 20.76 14.1C20.6534 14.8299 20.3039 15.5026 19.7679 16.0093C19.2319 16.5161 18.5407 16.8274 17.806 16.893L16.288 17.029C12.7697 17.3435 9.23031 17.3435 5.71199 17.029L4.19398 16.893C3.45926 16.8274 2.76809 16.5161 2.2321 16.0093C1.69611 15.5026 1.34659 14.8299 1.23999 14.1C0.746177 10.7179 0.746177 7.28208 1.23999 3.90001C1.34638 3.16993 1.69581 2.49704 2.23182 1.99006C2.76783 1.48308 3.45912 1.17163 4.19398 1.10601L5.71199 0.970008ZM4.85599 3.84001C4.74174 3.7784 4.61346 3.74749 4.4837 3.75031C4.35393 3.75313 4.22712 3.78958 4.11566 3.85609C4.0042 3.9226 3.91191 4.0169 3.84781 4.12977C3.78371 4.24264 3.75001 4.37021 3.74999 4.50001V14C3.74999 14.1989 3.829 14.3897 3.96966 14.5303C4.11031 14.671 4.30107 14.75 4.49999 14.75C4.6989 14.75 4.88966 14.671 5.03032 14.5303C5.17097 14.3897 5.24999 14.1989 5.24999 14V5.75601L10.644 8.66001C10.866 8.78001 11.134 8.78001 11.356 8.66001L16.75 5.75601V14C16.75 14.1989 16.829 14.3897 16.9697 14.5303C17.1103 14.671 17.3011 14.75 17.5 14.75C17.6989 14.75 17.8897 14.671 18.0303 14.5303C18.171 14.3897 18.25 14.1989 18.25 14V4.50001C18.25 4.37021 18.2163 4.24264 18.1522 4.12977C18.0881 4.0169 17.9958 3.9226 17.8843 3.85609C17.7729 3.78958 17.646 3.75313 17.5163 3.75031C17.3865 3.74749 17.2582 3.7784 17.144 3.84001L11 7.14801L4.85599 3.84001Z" fill="white"/>
</svg>
