<svg width="14" height="15" viewBox="0 0 14 15" fill="none" xmlns="http://www.w3.org/2000/svg">
<path fill-rule="evenodd" clip-rule="evenodd" d="M1.76519 5.75C1.76519 4.35761 2.32055 3.02226 3.30912 2.03769C4.29768 1.05312 5.63846 0.5 7.03649 0.5C8.43453 0.5 9.77531 1.05312 10.7639 2.03769C11.7524 3.02226 12.3078 4.35761 12.3078 5.75V8.573L13.6798 11.306C13.743 11.4318 13.7728 11.5716 13.7665 11.7121C13.7601 11.8526 13.7178 11.9891 13.6436 12.1088C13.5693 12.2284 13.4656 12.3271 13.3423 12.3956C13.2189 12.4641 13.0801 12.5 12.9389 12.5H9.95379C9.78628 13.1437 9.40891 13.7137 8.8809 14.1207C8.35289 14.5276 7.70414 14.7485 7.03649 14.7485C6.36885 14.7485 5.7201 14.5276 5.19209 14.1207C4.66408 13.7137 4.28671 13.1437 4.1192 12.5H1.13414C0.992923 12.5 0.854049 12.4641 0.730704 12.3956C0.60736 12.3271 0.50364 12.2284 0.429395 12.1088C0.35515 11.9891 0.312846 11.8526 0.306501 11.7121C0.300155 11.5716 0.329979 11.4318 0.39314 11.306L1.76519 8.573V5.75ZM5.73222 12.5C5.86441 12.728 6.05454 12.9174 6.28348 13.049C6.51243 13.1806 6.77213 13.2499 7.03649 13.2499C7.30085 13.2499 7.56056 13.1806 7.7895 13.049C8.01845 12.9174 8.20857 12.728 8.34077 12.5H5.73222ZM7.03649 2C6.0379 2 5.0802 2.39509 4.37408 3.09835C3.66797 3.80161 3.27127 4.75544 3.27127 5.75V8.573C3.27126 8.80575 3.21686 9.0353 3.11238 9.2435L2.23132 11H11.8424L10.9614 9.2435C10.8566 9.03537 10.802 8.80581 10.8017 8.573V5.75C10.8017 4.75544 10.405 3.80161 9.69891 3.09835C8.99279 2.39509 8.03509 2 7.03649 2Z" fill="white"/>
</svg>
