<svg width="20" height="20" viewBox="0 0 20 20" fill="none" xmlns="http://www.w3.org/2000/svg">
<path d="M16.1633 9.57143V4.21343C16.1633 4.14577 16.1486 4.07876 16.12 4.01625C16.0914 3.95374 16.0494 3.89695 15.9965 3.84914L13.0131 1.15086C12.9066 1.05438 12.762 1.00012 12.6113 1H1.56862C1.41781 1 1.27318 1.05418 1.16655 1.15063C1.05991 1.24708 1 1.37789 1 1.51429V17.6286C1 17.765 1.05991 17.8958 1.16655 17.9922C1.27318 18.0887 1.41781 18.1429 1.56862 18.1429H9.52935M4.79082 7.85714H12.3725M4.79082 4.42857H8.58164M4.79082 11.2857H7.63394" stroke="white" stroke-width="1.5" stroke-linecap="round" stroke-linejoin="round"/>
<path d="M12.3725 1V3.91429C12.3725 4.05068 12.4324 4.18149 12.539 4.27794C12.6456 4.37439 12.7903 4.42857 12.9411 4.42857H16.1633M16.1557 12.25L18.578 12.8063C18.8301 12.8646 19.0073 13.072 18.9998 13.3069C18.8368 18.2423 15.6894 19 15.6894 19C15.6894 19 12.5421 18.2423 12.3791 13.3069C12.3765 13.1926 12.4168 13.0809 12.4934 12.99C12.57 12.8991 12.6783 12.8343 12.8008 12.8063L15.2232 12.25C15.5293 12.1797 15.8496 12.1797 16.1557 12.25Z" stroke="white" stroke-width="1.5" stroke-linecap="round" stroke-linejoin="round"/>
</svg>
